<svg xmlns="http://www.w3.org/2000/svg" viewBox="0 0 94.057 94.057">
  <defs>
    <style>
      .cls-1 {
        fill: #475993;
      }
    </style>
  </defs>
  <path id="_174848" data-name="174848" class="cls-1" d="M81.384,0H12.676A12.674,12.674,0,0,0,0,12.674V81.382A12.674,12.674,0,0,0,12.676,94.057H46.563l.058-33.611H37.888a2.06,2.06,0,0,1-2.06-2.052l-.042-10.834a2.06,2.06,0,0,1,2.06-2.068h8.716V35.023c0-12.149,7.42-18.764,18.257-18.764h8.893a2.06,2.06,0,0,1,2.06,2.06v9.135a2.061,2.061,0,0,1-2.059,2.06l-5.457,0c-5.894,0-7.035,2.8-7.035,6.911v9.063H74.172a2.06,2.06,0,0,1,2.046,2.3L74.934,58.629a2.06,2.06,0,0,1-2.046,1.818H61.279l-.058,33.611H81.384A12.674,12.674,0,0,0,94.058,81.383V12.674A12.675,12.675,0,0,0,81.384,0Z" transform="translate(-0.002)"/>
</svg>
