<svg id="_9148" data-name="9148" xmlns="http://www.w3.org/2000/svg" viewBox="0 0 95.203 95.203">
  <defs>
    <style>
      .cls-1 {
        fill: #4fcdd2;
      }
    </style>
  </defs>
  <g id="Group_2" data-name="Group 2">
    <g id="Group_1" data-name="Group 1">
      <path id="Path_5" data-name="Path 5" class="cls-1" d="M77.352,0H17.85A17.849,17.849,0,0,0,0,17.85v59.5A17.849,17.849,0,0,0,17.85,95.2h59.5A17.849,17.849,0,0,0,95.2,77.352V17.85A17.849,17.849,0,0,0,77.352,0ZM71.283,36.915l.036,1.517c0,15.494-11.787,33.345-33.345,33.345A33.168,33.168,0,0,1,20.01,66.511a24.1,24.1,0,0,0,2.8.167,23.517,23.517,0,0,0,14.554-5.016,11.739,11.739,0,0,1-10.948-8.14,12.229,12.229,0,0,0,2.207.2,11.719,11.719,0,0,0,3.088-.4,11.732,11.732,0,0,1-9.4-11.49v-.149a11.7,11.7,0,0,0,5.307,1.47,11.738,11.738,0,0,1-3.63-15.643A33.261,33.261,0,0,0,48.143,39.753,11.729,11.729,0,0,1,68.117,29.067a23.733,23.733,0,0,0,7.444-2.844,11.751,11.751,0,0,1-5.153,6.486,23.494,23.494,0,0,0,6.73-1.845A23.69,23.69,0,0,1,71.283,36.915Z"/>
    </g>
  </g>
</svg>
